<svg width="40" height="40" viewBox="0 0 40 40" fill="none" xmlns="http://www.w3.org/2000/svg">
<path d="M10.6667 4C9.196 4 8 5.196 8 6.66667V18.6667H19.4479L16.3906 15.6094C15.8693 15.088 15.8693 14.2453 16.3906 13.724C16.912 13.2026 17.7547 13.2026 18.276 13.724L23.6094 19.0573C24.1307 19.5786 24.1307 20.4214 23.6094 20.9427L18.276 26.276C18.016 26.536 17.6747 26.6667 17.3333 26.6667C16.992 26.6667 16.6506 26.536 16.3906 26.276C15.8693 25.7547 15.8693 24.912 16.3906 24.3906L19.4479 21.3333H8V33.3333C8 34.804 9.196 36 10.6667 36H29.3333C30.804 36 32 34.804 32 33.3333V6.66667C32 5.196 30.804 4 29.3333 4H10.6667ZM8 21.3333V18.6667H1.33333C0.597333 18.6667 0 19.264 0 20C0 20.736 0.597333 21.3333 1.33333 21.3333H8Z" fill="#161616"/>
</svg>
